<mxfile host="app.diagrams.net" agent="Mozilla/5.0 (Windows NT 10.0; Win64; x64) AppleWebKit/537.36 (KHTML, like Gecko) Chrome/131.0.0.0 Safari/537.36" version="25.0.1">
  <diagram name="Page-1" id="mNmfo9-ZY8wS-75tIMfN">
    <mxGraphModel dx="1434" dy="738" grid="1" gridSize="10" guides="1" tooltips="1" connect="1" arrows="1" fold="1" page="1" pageScale="1" pageWidth="1100" pageHeight="850" math="0" shadow="0">
      <root>
        <mxCell id="0" />
        <mxCell id="1" parent="0" />
        <mxCell id="98yfZiaLMMMqMSyK-l2X-13" style="edgeStyle=orthogonalEdgeStyle;rounded=0;orthogonalLoop=1;jettySize=auto;html=1;" parent="1" source="98yfZiaLMMMqMSyK-l2X-6" target="98yfZiaLMMMqMSyK-l2X-10" edge="1">
          <mxGeometry relative="1" as="geometry" />
        </mxCell>
        <mxCell id="98yfZiaLMMMqMSyK-l2X-14" value="Immediate" style="edgeLabel;html=1;align=center;verticalAlign=middle;resizable=0;points=[];" parent="98yfZiaLMMMqMSyK-l2X-13" vertex="1" connectable="0">
          <mxGeometry x="0.0462" y="-2" relative="1" as="geometry">
            <mxPoint as="offset" />
          </mxGeometry>
        </mxCell>
        <mxCell id="98yfZiaLMMMqMSyK-l2X-6" value="&lt;p style=&quot;margin:0px;margin-top:4px;text-align:center;text-decoration:underline;&quot;&gt;&lt;b&gt;Start&lt;/b&gt;&lt;/p&gt;&lt;hr size=&quot;1&quot; style=&quot;border-style:solid;&quot;&gt;&lt;p style=&quot;margin:0px;margin-left:8px;&quot;&gt;Entry = Greet, Transition Idea Check&lt;br&gt;Exit = None&lt;br&gt;Triggers = None&lt;/p&gt;" style="verticalAlign=top;align=left;overflow=fill;html=1;whiteSpace=wrap;container=1;" parent="1" vertex="1">
          <mxGeometry x="440" y="340" width="160" height="90" as="geometry" />
        </mxCell>
        <mxCell id="98yfZiaLMMMqMSyK-l2X-11" style="edgeStyle=orthogonalEdgeStyle;rounded=0;orthogonalLoop=1;jettySize=auto;html=1;entryX=0;entryY=0.5;entryDx=0;entryDy=0;" parent="1" source="98yfZiaLMMMqMSyK-l2X-7" target="98yfZiaLMMMqMSyK-l2X-99" edge="1">
          <mxGeometry relative="1" as="geometry" />
        </mxCell>
        <mxCell id="98yfZiaLMMMqMSyK-l2X-7" value="" style="ellipse;fillColor=strokeColor;html=1;" parent="1" vertex="1">
          <mxGeometry x="70" y="370" width="30" height="30" as="geometry" />
        </mxCell>
        <mxCell id="98yfZiaLMMMqMSyK-l2X-16" style="edgeStyle=orthogonalEdgeStyle;rounded=0;orthogonalLoop=1;jettySize=auto;html=1;" parent="1" source="98yfZiaLMMMqMSyK-l2X-10" target="98yfZiaLMMMqMSyK-l2X-15" edge="1">
          <mxGeometry relative="1" as="geometry" />
        </mxCell>
        <mxCell id="YFkgDHGAvPGRMSyyv57I-1" value="Text" style="edgeLabel;html=1;align=center;verticalAlign=middle;resizable=0;points=[];" parent="98yfZiaLMMMqMSyK-l2X-16" vertex="1" connectable="0">
          <mxGeometry x="-0.2632" y="-2" relative="1" as="geometry">
            <mxPoint as="offset" />
          </mxGeometry>
        </mxCell>
        <mxCell id="98yfZiaLMMMqMSyK-l2X-10" value="&lt;p style=&quot;margin:0px;margin-top:4px;text-align:center;text-decoration:underline;&quot;&gt;&lt;b&gt;Idea Check&lt;/b&gt;&lt;/p&gt;&lt;hr size=&quot;1&quot; style=&quot;border-style:solid;&quot;&gt;&lt;p style=&quot;margin:0px;margin-left:8px;&quot;&gt;Entry = Prompt&lt;br&gt;Exit = None&lt;br&gt;Triggers = None&lt;/p&gt;" style="verticalAlign=top;align=left;overflow=fill;html=1;whiteSpace=wrap;container=1;" parent="1" vertex="1">
          <mxGeometry x="730" y="340" width="160" height="90" as="geometry" />
        </mxCell>
        <mxCell id="98yfZiaLMMMqMSyK-l2X-21" value="Yes" style="edgeStyle=orthogonalEdgeStyle;rounded=0;orthogonalLoop=1;jettySize=auto;html=1;" parent="1" source="98yfZiaLMMMqMSyK-l2X-15" target="98yfZiaLMMMqMSyK-l2X-26" edge="1">
          <mxGeometry relative="1" as="geometry">
            <mxPoint x="995" y="240" as="targetPoint" />
            <Array as="points">
              <mxPoint x="995" y="170" />
            </Array>
          </mxGeometry>
        </mxCell>
        <mxCell id="98yfZiaLMMMqMSyK-l2X-22" value="Not Sure" style="edgeStyle=orthogonalEdgeStyle;rounded=0;orthogonalLoop=1;jettySize=auto;html=1;exitX=1;exitY=0.5;exitDx=0;exitDy=0;" parent="1" source="98yfZiaLMMMqMSyK-l2X-15" target="98yfZiaLMMMqMSyK-l2X-20" edge="1">
          <mxGeometry relative="1" as="geometry" />
        </mxCell>
        <mxCell id="98yfZiaLMMMqMSyK-l2X-24" value="No" style="edgeStyle=orthogonalEdgeStyle;rounded=0;orthogonalLoop=1;jettySize=auto;html=1;movable=1;resizable=1;rotatable=1;deletable=1;editable=1;locked=0;connectable=1;" parent="1" source="98yfZiaLMMMqMSyK-l2X-15" target="98yfZiaLMMMqMSyK-l2X-23" edge="1">
          <mxGeometry relative="1" as="geometry">
            <mxPoint x="1250" y="590" as="targetPoint" />
            <Array as="points">
              <mxPoint x="995" y="565" />
            </Array>
          </mxGeometry>
        </mxCell>
        <mxCell id="98yfZiaLMMMqMSyK-l2X-15" value="" style="rhombus;" parent="1" vertex="1">
          <mxGeometry x="980" y="370" width="30" height="30" as="geometry" />
        </mxCell>
        <mxCell id="98yfZiaLMMMqMSyK-l2X-27" style="edgeStyle=orthogonalEdgeStyle;rounded=0;orthogonalLoop=1;jettySize=auto;html=1;" parent="1" source="98yfZiaLMMMqMSyK-l2X-20" target="98yfZiaLMMMqMSyK-l2X-26" edge="1">
          <mxGeometry relative="1" as="geometry" />
        </mxCell>
        <mxCell id="98yfZiaLMMMqMSyK-l2X-28" value="Idea Selected" style="edgeLabel;html=1;align=center;verticalAlign=middle;resizable=0;points=[];" parent="98yfZiaLMMMqMSyK-l2X-27" vertex="1" connectable="0">
          <mxGeometry x="0.1368" relative="1" as="geometry">
            <mxPoint as="offset" />
          </mxGeometry>
        </mxCell>
        <mxCell id="98yfZiaLMMMqMSyK-l2X-40" style="edgeStyle=orthogonalEdgeStyle;rounded=0;orthogonalLoop=1;jettySize=auto;html=1;" parent="1" source="98yfZiaLMMMqMSyK-l2X-20" target="98yfZiaLMMMqMSyK-l2X-23" edge="1">
          <mxGeometry relative="1" as="geometry" />
        </mxCell>
        <mxCell id="98yfZiaLMMMqMSyK-l2X-20" value="&lt;p style=&quot;margin:0px;margin-top:4px;text-align:center;text-decoration:underline;&quot;&gt;&lt;b&gt;Behavioral Menu&lt;/b&gt;&lt;/p&gt;&lt;hr size=&quot;1&quot; style=&quot;border-style:solid;&quot;&gt;&lt;p style=&quot;margin:0px;margin-left:8px;&quot;&gt;Entry = Suggest Actions&lt;br&gt;Exit = None&lt;br&gt;Triggers = Idea Check: Not Sure&lt;/p&gt;" style="verticalAlign=top;align=left;overflow=fill;html=1;whiteSpace=wrap;container=1;" parent="1" vertex="1">
          <mxGeometry x="1080" y="340" width="160" height="90" as="geometry" />
        </mxCell>
        <mxCell id="98yfZiaLMMMqMSyK-l2X-44" style="edgeStyle=orthogonalEdgeStyle;rounded=0;orthogonalLoop=1;jettySize=auto;html=1;" parent="1" source="98yfZiaLMMMqMSyK-l2X-23" target="98yfZiaLMMMqMSyK-l2X-43" edge="1">
          <mxGeometry relative="1" as="geometry" />
        </mxCell>
        <mxCell id="98yfZiaLMMMqMSyK-l2X-23" value="&lt;p style=&quot;margin:0px;margin-top:4px;text-align:center;text-decoration:underline;&quot;&gt;&lt;b&gt;Check-In Offer&lt;/b&gt;&lt;/p&gt;&lt;hr size=&quot;1&quot; style=&quot;border-style:solid;&quot;&gt;&lt;p style=&quot;margin:0px;margin-left:8px;&quot;&gt;Entry = Prompt&lt;br&gt;Exit = None&lt;br&gt;Triggers = Idea Check: No&lt;/p&gt;" style="verticalAlign=top;align=left;overflow=fill;html=1;whiteSpace=wrap;container=1;" parent="1" vertex="1">
          <mxGeometry x="1080" y="520" width="160" height="90" as="geometry" />
        </mxCell>
        <mxCell id="98yfZiaLMMMqMSyK-l2X-25" value="Global:&lt;div&gt;On State_exit: Log&lt;/div&gt;&lt;div&gt;On invalid input error, re-enter state?&lt;/div&gt;&lt;div&gt;On final - save log to file&lt;/div&gt;" style="text;html=1;align=center;verticalAlign=middle;resizable=0;points=[];autosize=1;strokeColor=none;fillColor=none;" parent="1" vertex="1">
          <mxGeometry x="425" y="160" width="220" height="70" as="geometry" />
        </mxCell>
        <mxCell id="98yfZiaLMMMqMSyK-l2X-34" style="edgeStyle=orthogonalEdgeStyle;rounded=0;orthogonalLoop=1;jettySize=auto;html=1;" parent="1" source="98yfZiaLMMMqMSyK-l2X-26" target="98yfZiaLMMMqMSyK-l2X-32" edge="1">
          <mxGeometry relative="1" as="geometry" />
        </mxCell>
        <mxCell id="98yfZiaLMMMqMSyK-l2X-26" value="&lt;p style=&quot;margin:0px;margin-top:4px;text-align:center;text-decoration:underline;&quot;&gt;&lt;b&gt;SMART Planning&lt;/b&gt;&lt;/p&gt;&lt;hr size=&quot;1&quot; style=&quot;border-style:solid;&quot;&gt;&lt;p style=&quot;margin:0px;margin-left:8px;&quot;&gt;Entry = Prompt more details&lt;br&gt;Exit = None&lt;br&gt;&lt;br&gt;&lt;/p&gt;" style="verticalAlign=top;align=left;overflow=fill;html=1;whiteSpace=wrap;container=1;" parent="1" vertex="1">
          <mxGeometry x="1080" y="110" width="160" height="90" as="geometry" />
        </mxCell>
        <mxCell id="98yfZiaLMMMqMSyK-l2X-36" style="edgeStyle=orthogonalEdgeStyle;rounded=0;orthogonalLoop=1;jettySize=auto;html=1;" parent="1" source="98yfZiaLMMMqMSyK-l2X-32" target="98yfZiaLMMMqMSyK-l2X-35" edge="1">
          <mxGeometry relative="1" as="geometry" />
        </mxCell>
        <mxCell id="98yfZiaLMMMqMSyK-l2X-32" value="&lt;p style=&quot;margin:0px;margin-top:4px;text-align:center;text-decoration:underline;&quot;&gt;&lt;b&gt;Commitment Statement&lt;/b&gt;&lt;/p&gt;&lt;hr size=&quot;1&quot; style=&quot;border-style:solid;&quot;&gt;&lt;p style=&quot;margin:0px;margin-left:8px;&quot;&gt;Entry = Prompt for statement&lt;br&gt;Exit = None&lt;br&gt;&lt;br&gt;&lt;/p&gt;" style="verticalAlign=top;align=left;overflow=fill;html=1;whiteSpace=wrap;container=1;" parent="1" vertex="1">
          <mxGeometry x="1350" y="110" width="160" height="90" as="geometry" />
        </mxCell>
        <mxCell id="98yfZiaLMMMqMSyK-l2X-51" style="edgeStyle=orthogonalEdgeStyle;rounded=0;orthogonalLoop=1;jettySize=auto;html=1;" parent="1" source="98yfZiaLMMMqMSyK-l2X-33" target="98yfZiaLMMMqMSyK-l2X-47" edge="1">
          <mxGeometry relative="1" as="geometry" />
        </mxCell>
        <mxCell id="98yfZiaLMMMqMSyK-l2X-33" value="&lt;p style=&quot;margin:0px;margin-top:4px;text-align:center;text-decoration:underline;&quot;&gt;&lt;b&gt;Check On Progress&lt;/b&gt;&lt;/p&gt;&lt;hr size=&quot;1&quot; style=&quot;border-style:solid;&quot;&gt;&lt;p style=&quot;margin:0px;margin-left:8px;&quot;&gt;Entry = Prompt for statement&lt;br&gt;Exit = None&lt;br&gt;&lt;br&gt;&lt;/p&gt;" style="verticalAlign=top;align=left;overflow=fill;html=1;whiteSpace=wrap;container=1;" parent="1" vertex="1">
          <mxGeometry x="1600" y="680" width="160" height="90" as="geometry" />
        </mxCell>
        <mxCell id="98yfZiaLMMMqMSyK-l2X-69" style="edgeStyle=orthogonalEdgeStyle;rounded=0;orthogonalLoop=1;jettySize=auto;html=1;entryX=0.5;entryY=0;entryDx=0;entryDy=0;" parent="1" source="98yfZiaLMMMqMSyK-l2X-35" target="98yfZiaLMMMqMSyK-l2X-66" edge="1">
          <mxGeometry relative="1" as="geometry" />
        </mxCell>
        <mxCell id="98yfZiaLMMMqMSyK-l2X-35" value="&lt;p style=&quot;margin:0px;margin-top:4px;text-align:center;text-decoration:underline;&quot;&gt;&lt;b&gt;Confidence Check&lt;/b&gt;&lt;/p&gt;&lt;hr size=&quot;1&quot; style=&quot;border-style:solid;&quot;&gt;&lt;p style=&quot;margin:0px;margin-left:8px;&quot;&gt;Entry = Prompt for statement&lt;br&gt;Exit = None&lt;br&gt;&lt;br&gt;&lt;/p&gt;" style="verticalAlign=top;align=left;overflow=fill;html=1;whiteSpace=wrap;container=1;" parent="1" vertex="1">
          <mxGeometry x="1350" y="250" width="160" height="90" as="geometry" />
        </mxCell>
        <mxCell id="98yfZiaLMMMqMSyK-l2X-45" style="edgeStyle=orthogonalEdgeStyle;rounded=0;orthogonalLoop=1;jettySize=auto;html=1;" parent="1" source="98yfZiaLMMMqMSyK-l2X-43" target="98yfZiaLMMMqMSyK-l2X-33" edge="1">
          <mxGeometry relative="1" as="geometry" />
        </mxCell>
        <mxCell id="98yfZiaLMMMqMSyK-l2X-46" value="Yes" style="edgeLabel;html=1;align=center;verticalAlign=middle;resizable=0;points=[];" parent="98yfZiaLMMMqMSyK-l2X-45" vertex="1" connectable="0">
          <mxGeometry x="-0.0667" y="2" relative="1" as="geometry">
            <mxPoint as="offset" />
          </mxGeometry>
        </mxCell>
        <mxCell id="98yfZiaLMMMqMSyK-l2X-88" style="edgeStyle=orthogonalEdgeStyle;rounded=0;orthogonalLoop=1;jettySize=auto;html=1;" parent="1" source="98yfZiaLMMMqMSyK-l2X-43" target="98yfZiaLMMMqMSyK-l2X-62" edge="1">
          <mxGeometry relative="1" as="geometry">
            <mxPoint x="880" y="725" as="targetPoint" />
          </mxGeometry>
        </mxCell>
        <mxCell id="98yfZiaLMMMqMSyK-l2X-90" value="No = Goodbye Trigger" style="edgeLabel;html=1;align=center;verticalAlign=middle;resizable=0;points=[];" parent="98yfZiaLMMMqMSyK-l2X-88" vertex="1" connectable="0">
          <mxGeometry x="0.275" y="3" relative="1" as="geometry">
            <mxPoint x="-1" as="offset" />
          </mxGeometry>
        </mxCell>
        <mxCell id="98yfZiaLMMMqMSyK-l2X-43" value="" style="rhombus;" parent="1" vertex="1">
          <mxGeometry x="1145" y="710" width="30" height="30" as="geometry" />
        </mxCell>
        <mxCell id="98yfZiaLMMMqMSyK-l2X-81" style="edgeStyle=orthogonalEdgeStyle;rounded=0;orthogonalLoop=1;jettySize=auto;html=1;entryX=0.5;entryY=1;entryDx=0;entryDy=0;" parent="1" source="98yfZiaLMMMqMSyK-l2X-47" target="98yfZiaLMMMqMSyK-l2X-80" edge="1">
          <mxGeometry relative="1" as="geometry" />
        </mxCell>
        <mxCell id="98yfZiaLMMMqMSyK-l2X-47" value="&lt;p style=&quot;margin:0px;margin-top:4px;text-align:center;text-decoration:underline;&quot;&gt;&lt;b&gt;Success Reflection&lt;/b&gt;&lt;/p&gt;&lt;hr size=&quot;1&quot; style=&quot;border-style:solid;&quot;&gt;&lt;p style=&quot;margin:0px;margin-left:8px;&quot;&gt;Entry = Prompt for statement&lt;br&gt;Exit = None&lt;br&gt;&lt;br&gt;&lt;/p&gt;" style="verticalAlign=top;align=left;overflow=fill;html=1;whiteSpace=wrap;container=1;" parent="1" vertex="1">
          <mxGeometry x="1600" y="460" width="160" height="90" as="geometry" />
        </mxCell>
        <mxCell id="98yfZiaLMMMqMSyK-l2X-60" value="Ex" style="ellipse;html=1;shape=endState;fillColor=strokeColor;" parent="1" vertex="1">
          <mxGeometry x="70" y="550" width="30" height="30" as="geometry" />
        </mxCell>
        <mxCell id="98yfZiaLMMMqMSyK-l2X-75" style="edgeStyle=orthogonalEdgeStyle;rounded=0;orthogonalLoop=1;jettySize=auto;html=1;entryX=0.5;entryY=1;entryDx=0;entryDy=0;" parent="1" source="98yfZiaLMMMqMSyK-l2X-62" target="98yfZiaLMMMqMSyK-l2X-72" edge="1">
          <mxGeometry relative="1" as="geometry" />
        </mxCell>
        <mxCell id="98yfZiaLMMMqMSyK-l2X-62" value="&lt;p style=&quot;margin:0px;margin-top:4px;text-align:center;text-decoration:underline;&quot;&gt;&lt;b&gt;Goodbye&lt;/b&gt;&lt;/p&gt;&lt;hr size=&quot;1&quot; style=&quot;border-style:solid;&quot;&gt;&lt;p style=&quot;margin:0px;margin-left:8px;&quot;&gt;Entry = Prompt&amp;nbsp;&lt;br&gt;Exit = None&lt;br&gt;&lt;br&gt;&lt;/p&gt;" style="verticalAlign=top;align=left;overflow=fill;html=1;whiteSpace=wrap;container=1;" parent="1" vertex="1">
          <mxGeometry x="440" y="680" width="160" height="90" as="geometry" />
        </mxCell>
        <mxCell id="98yfZiaLMMMqMSyK-l2X-70" value="Confidence &amp;gt;= 7" style="edgeStyle=orthogonalEdgeStyle;rounded=0;orthogonalLoop=1;jettySize=auto;html=1;" parent="1" source="98yfZiaLMMMqMSyK-l2X-66" target="98yfZiaLMMMqMSyK-l2X-23" edge="1">
          <mxGeometry relative="1" as="geometry">
            <Array as="points">
              <mxPoint x="1430" y="560" />
            </Array>
          </mxGeometry>
        </mxCell>
        <mxCell id="98yfZiaLMMMqMSyK-l2X-71" value="Confidence &amp;lt;7" style="edgeStyle=orthogonalEdgeStyle;rounded=0;orthogonalLoop=1;jettySize=auto;html=1;" parent="1" source="98yfZiaLMMMqMSyK-l2X-66" target="98yfZiaLMMMqMSyK-l2X-20" edge="1">
          <mxGeometry relative="1" as="geometry" />
        </mxCell>
        <mxCell id="98yfZiaLMMMqMSyK-l2X-66" value="" style="rhombus;" parent="1" vertex="1">
          <mxGeometry x="1415" y="370" width="30" height="30" as="geometry" />
        </mxCell>
        <mxCell id="98yfZiaLMMMqMSyK-l2X-74" value="New Issue" style="edgeStyle=orthogonalEdgeStyle;rounded=0;orthogonalLoop=1;jettySize=auto;html=1;" parent="1" source="98yfZiaLMMMqMSyK-l2X-72" target="98yfZiaLMMMqMSyK-l2X-6" edge="1">
          <mxGeometry relative="1" as="geometry" />
        </mxCell>
        <mxCell id="98yfZiaLMMMqMSyK-l2X-76" style="edgeStyle=orthogonalEdgeStyle;rounded=0;orthogonalLoop=1;jettySize=auto;html=1;exitX=0;exitY=0.5;exitDx=0;exitDy=0;" parent="1" source="98yfZiaLMMMqMSyK-l2X-72" target="98yfZiaLMMMqMSyK-l2X-97" edge="1">
          <mxGeometry relative="1" as="geometry" />
        </mxCell>
        <mxCell id="98yfZiaLMMMqMSyK-l2X-95" value="Finished" style="edgeLabel;html=1;align=center;verticalAlign=middle;resizable=0;points=[];" parent="98yfZiaLMMMqMSyK-l2X-76" vertex="1" connectable="0">
          <mxGeometry x="-0.3557" y="-1" relative="1" as="geometry">
            <mxPoint as="offset" />
          </mxGeometry>
        </mxCell>
        <mxCell id="98yfZiaLMMMqMSyK-l2X-72" value="" style="rhombus;" parent="1" vertex="1">
          <mxGeometry x="505" y="550" width="30" height="30" as="geometry" />
        </mxCell>
        <mxCell id="98yfZiaLMMMqMSyK-l2X-82" style="edgeStyle=orthogonalEdgeStyle;rounded=0;orthogonalLoop=1;jettySize=auto;html=1;entryX=1;entryY=0.5;entryDx=0;entryDy=0;" parent="1" source="98yfZiaLMMMqMSyK-l2X-80" target="98yfZiaLMMMqMSyK-l2X-66" edge="1">
          <mxGeometry relative="1" as="geometry" />
        </mxCell>
        <mxCell id="98yfZiaLMMMqMSyK-l2X-83" value="Trigger confidence &amp;lt; 7" style="edgeLabel;html=1;align=center;verticalAlign=middle;resizable=0;points=[];" parent="98yfZiaLMMMqMSyK-l2X-82" vertex="1" connectable="0">
          <mxGeometry x="0.089" y="4" relative="1" as="geometry">
            <mxPoint as="offset" />
          </mxGeometry>
        </mxCell>
        <mxCell id="98yfZiaLMMMqMSyK-l2X-85" style="edgeStyle=orthogonalEdgeStyle;rounded=0;orthogonalLoop=1;jettySize=auto;html=1;entryX=0.5;entryY=0;entryDx=0;entryDy=0;" parent="1" source="98yfZiaLMMMqMSyK-l2X-80" target="98yfZiaLMMMqMSyK-l2X-26" edge="1">
          <mxGeometry relative="1" as="geometry">
            <mxPoint x="1680" y="10" as="targetPoint" />
            <Array as="points">
              <mxPoint x="1680" y="30" />
              <mxPoint x="1160" y="30" />
            </Array>
          </mxGeometry>
        </mxCell>
        <mxCell id="98yfZiaLMMMqMSyK-l2X-86" value="New or more specific goal" style="edgeLabel;html=1;align=center;verticalAlign=middle;resizable=0;points=[];" parent="98yfZiaLMMMqMSyK-l2X-85" vertex="1" connectable="0">
          <mxGeometry x="-0.6927" y="2" relative="1" as="geometry">
            <mxPoint as="offset" />
          </mxGeometry>
        </mxCell>
        <mxCell id="98yfZiaLMMMqMSyK-l2X-87" style="edgeStyle=orthogonalEdgeStyle;rounded=0;orthogonalLoop=1;jettySize=auto;html=1;entryX=0.5;entryY=1;entryDx=0;entryDy=0;" parent="1" source="98yfZiaLMMMqMSyK-l2X-80" target="98yfZiaLMMMqMSyK-l2X-43" edge="1">
          <mxGeometry relative="1" as="geometry">
            <mxPoint x="2030" y="385" as="targetPoint" />
            <Array as="points">
              <mxPoint x="1890" y="385" />
              <mxPoint x="1890" y="820" />
              <mxPoint x="1160" y="820" />
            </Array>
          </mxGeometry>
        </mxCell>
        <mxCell id="98yfZiaLMMMqMSyK-l2X-89" value="Goodbye Trigger" style="edgeLabel;html=1;align=center;verticalAlign=middle;resizable=0;points=[];" parent="98yfZiaLMMMqMSyK-l2X-87" vertex="1" connectable="0">
          <mxGeometry x="-0.4122" y="-3" relative="1" as="geometry">
            <mxPoint as="offset" />
          </mxGeometry>
        </mxCell>
        <mxCell id="98yfZiaLMMMqMSyK-l2X-80" value="" style="rhombus;" parent="1" vertex="1">
          <mxGeometry x="1665" y="370" width="30" height="30" as="geometry" />
        </mxCell>
        <mxCell id="98yfZiaLMMMqMSyK-l2X-98" style="edgeStyle=orthogonalEdgeStyle;rounded=0;orthogonalLoop=1;jettySize=auto;html=1;" parent="1" source="98yfZiaLMMMqMSyK-l2X-97" target="98yfZiaLMMMqMSyK-l2X-60" edge="1">
          <mxGeometry relative="1" as="geometry" />
        </mxCell>
        <mxCell id="98yfZiaLMMMqMSyK-l2X-97" value="&lt;p style=&quot;margin:0px;margin-top:4px;text-align:center;text-decoration:underline;&quot;&gt;&lt;b&gt;Termination&lt;/b&gt;&lt;/p&gt;&lt;hr size=&quot;1&quot; style=&quot;border-style:solid;&quot;&gt;&lt;p style=&quot;margin:0px;margin-left:8px;&quot;&gt;Entry = None&lt;br&gt;Exit = None&lt;/p&gt;&lt;p style=&quot;margin:0px;margin-left:8px;&quot;&gt;Final = True&lt;br&gt;&lt;br&gt;&lt;/p&gt;" style="verticalAlign=top;align=left;overflow=fill;html=1;whiteSpace=wrap;container=1;" parent="1" vertex="1">
          <mxGeometry x="230" y="520" width="160" height="90" as="geometry" />
        </mxCell>
        <mxCell id="98yfZiaLMMMqMSyK-l2X-100" style="edgeStyle=orthogonalEdgeStyle;rounded=0;orthogonalLoop=1;jettySize=auto;html=1;" parent="1" source="98yfZiaLMMMqMSyK-l2X-99" target="98yfZiaLMMMqMSyK-l2X-6" edge="1">
          <mxGeometry relative="1" as="geometry" />
        </mxCell>
        <mxCell id="98yfZiaLMMMqMSyK-l2X-99" value="&lt;p style=&quot;margin:0px;margin-top:4px;text-align:center;text-decoration:underline;&quot;&gt;&lt;b&gt;Dummy&lt;/b&gt;&lt;/p&gt;&lt;hr size=&quot;1&quot; style=&quot;border-style:solid;&quot;&gt;&lt;p style=&quot;margin:0px;margin-left:8px;&quot;&gt;Entry = Transition to Start&lt;/p&gt;" style="verticalAlign=top;align=left;overflow=fill;html=1;whiteSpace=wrap;container=1;" parent="1" vertex="1">
          <mxGeometry x="230" y="340" width="160" height="90" as="geometry" />
        </mxCell>
      </root>
    </mxGraphModel>
  </diagram>
</mxfile>
